<?xml version="1.0" encoding="utf-8"?>
<!-- Generator: Adobe Illustrator 25.0.0, SVG Export Plug-In . SVG Version: 6.00 Build 0)  -->
<svg version="1.1" id="Calque_1" xmlns="http://www.w3.org/2000/svg" xmlns:xlink="http://www.w3.org/1999/xlink" x="0px" y="0px"
	 viewBox="0 0 244 247" style="enable-background:new 0 0 244 247;" xml:space="preserve">
<style type="text/css">
	.st0{fill-rule:evenodd;clip-rule:evenodd;}
</style>
<g>
	<path class="st0" d="M112.9,162.7c-2.4,0-4.5-1.1-6.3-3.2c-1.9-2.2-2.8-5-2.8-8.2c0-4.5,1.8-10.3,5.5-17.5c0.4-0.7,0.7-1.1,0.9-1.1
		c0.1,0,0.1,0.1,0.1,0.3c0,0.7-0.8,3.2-2.4,7.5c-1.6,4.3-2.4,7.7-2.4,10.2c0,1.9,0.4,3.5,1.3,4.6c1,1.2,2.3,1.9,4,1.9
		c2.6,0,5.7-1.6,9.2-4.9c0.4-0.4,3.5-3.7,9.3-10.1c8.5-9.2,16.1-13.9,22.9-13.9c1.9,0,3.6,0.6,5,1.8c1.4,1.2,2.1,2.5,2.1,4.1
		c0,1.9-0.3,3.7-1,5.1c-0.2,0.5-0.4,0.8-0.5,0.8c-0.1,0-0.3-0.3-0.6-0.8c-1.4-2.5-3.5-3.7-6.3-3.7c-5.2,0-11.1,3.4-17.7,10.1
		c-3.7,4-7.4,8.1-11.1,12.1C118.8,161,115.8,162.7,112.9,162.7L112.9,162.7z"/>
	<path class="st0" d="M168.2,70.5c0-2.3-0.4-4.2-1.1-5.7c0-0.8,0.7-2.8,2-6c0.2-0.4,0.3-0.6,0.4-0.6c0.1,0,0.3,0.2,0.5,0.6
		c0.4,0.8,1.3,3.1,2.7,6.8c1.5,3.9,2.3,6.2,2.6,7.1c0.2,0.7,0.3,1.2,0.3,1.5c0,1.1-1,0.4-3.1-1.9c-0.3-0.3-0.4-0.2-0.4,0.4
		c0,0.2,0.5,6.3,1.6,21c1.1,14.6,1.4,15,1.4,16.8c0,5.6-0.9,10.5-2.6,14.8c-0.4,0.9-0.7,1.5-0.9,1.9c-0.4,0.6-0.5,0.7-0.6,0.3
		c-0.1-0.4-0.1-1.4,0.1-2.8c0.2-1.9,0.3-4.2,0.3-6.7c0-2.3-0.4-4-1.6-20.7C168.8,80.6,168.2,72.5,168.2,70.5L168.2,70.5z"/>
	<path class="st0" d="M78.9,122c-2.4,0-4.5-1.1-6.3-3.2c-1.9-2.2-2.8-5-2.8-8.2c0-4.5,1.8-10.3,5.5-17.5c0.4-0.7,0.7-1.1,0.9-1.1
		c0.1,0,0.1,0.1,0.1,0.3c0,0.7-0.8,3.2-2.4,7.5c-1.6,4.3-2.4,7.7-2.4,10.2c0,1.9,0.4,3.5,1.3,4.6c1,1.2,2.3,1.9,4,1.9
		c2.6,0,5.7-1.6,9.2-4.9c0.4-0.4,3.5-3.7,9.3-10.1c8.5-9.2,14.3-14.2,21.1-14.2c1.9,0,3.6,0.6,5,1.8c1.4,1.2,2.1,2.5,2.1,4.1
		c0,1.9-0.3,3.7-1,5.1c-0.2,0.5-0.4,0.8-0.5,0.8c-0.1,0-0.3-0.3-0.6-0.8c-1.4-2.5-3.5-3.7-6.3-3.7c-5.2,0-9.3,3.7-15.9,10.4
		c-3.7,4-7.4,8.1-11.1,12.1C84.7,120.4,81.7,122,78.9,122L78.9,122z"/>
	<path class="st0" d="M143.3,42.5c-0.3,0.6-0.5,0.9-0.7,0.9c-0.2,0-0.3-0.4-0.1-1.1c0.1-0.7,0.2-1.5,0.2-2.6c0-3.4-1.9-6.8-5.7-10.1
		c-0.2-0.2-0.3-0.5-0.1-0.8l1.1-1.9c0.1-0.2,0.3-0.2,0.5,0c3.7,2.8,5.7,6.6,5.7,11.4C144.1,39.7,143.8,41.1,143.3,42.5L143.3,42.5z"
		/>
	<path class="st0" d="M99.6,112c1.4,0,2.6,0.8,3.7,2.4c1.1,1.6,1.8,3.7,2.3,6.3c0.1,0.3,0.1,0.4,0.1,0.5c0.1,0.1,0.1,0.1,0.1,0
		c0-0.1,0.1-0.2,0.2-0.5c0.2-1.5,0.7-3.9,1.6-6.9c0.9-2.2,1.9-3.3,3-3.3c0.6,0,1.1,0.4,1.7,1.1c0.5,0.7,0.7,1.2,0.7,1.6
		c0,0.3-0.1,0.7-0.3,1.2c-0.2,0.7-0.5,1-0.7,1c-0.1,0-0.4-0.3-0.8-0.8c-0.4-0.5-0.8-0.8-1.3-0.8c-1,0-1.9,2.3-2.7,6.8
		c-0.4,2-0.8,3.4-1.2,4.2c-0.3,0.5-0.6,0.8-0.8,0.8s-0.3-0.3-0.3-0.8c0-0.8-0.5-2.4-1.4-4.7c-0.9-2.3-1.5-3.5-2-3.5
		c-0.2,0-0.4,0.1-0.5,0.2c-0.1,0.2-0.3,0.3-0.7,0.3c-0.4,0-0.9-0.3-1.6-0.9c-0.7-0.6-1-1.1-1-1.5c0-0.1,0.3-0.7,0.8-1.6
		C99.1,112.4,99.5,112,99.6,112L99.6,112z"/>
	<path class="st0" d="M148.6,66.4c-1.7-0.9-2.6-1.8-2.6-2.8c0-1.2,0.6-2.3,1.7-3.3c1.1-1,2-1.4,2.8-1.1c0.6,0.2,0.9,0.9,0.9,2
		c0,1-0.2,2.1-0.6,3.3c0.9,0.5,1.4,0.9,1.7,1.3c0,0.5-0.4,1.3-1.2,2.4c-0.2-0.3-0.8-0.8-1.6-1.3c-1,1.4-2.2,2.6-3.7,3.7
		c-1.7,1.2-3.3,2.2-4.7,2.8c-0.3,0.1-2,0.8-4.9,1.9c-0.5,0.2-0.8,0.3-0.9,0.3c-0.1,0-0.1,0-0.1-0.1c0-0.1,0.3-0.3,0.8-0.7
		c2.2-1.3,4.4-2.6,6.6-3.9C145.3,69.2,147.3,67.8,148.6,66.4L148.6,66.4z M149.6,64c0.2-0.5,0.2-1.1,0.1-1.6
		c-0.1-0.6-0.4-0.9-0.8-0.9c-0.2,0-0.5,0.1-0.8,0.3c-0.3,0.2-0.5,0.4-0.5,0.6C147.6,62.8,148.2,63.3,149.6,64L149.6,64z"/>
	<path class="st0" d="M81.8,88.8c1.4,0,2.6,0.8,3.7,2.4c1.1,1.6,1.8,3.7,2.3,6.3c0.1,0.3,0.1,0.4,0.1,0.5c0.1,0.1,0.1,0.1,0.1,0
		c0-0.1,0.1-0.2,0.2-0.5c0.2-1.5,0.7-3.9,1.6-6.9c0.9-2.2,1.9-3.3,3-3.3c0.6,0,1.1,0.4,1.7,1.1c0.5,0.7,0.7,1.2,0.7,1.6
		c0,0.3-0.1,0.7-0.3,1.2c-0.2,0.7-0.5,1-0.7,1c-0.1,0-0.4-0.3-0.8-0.8c-0.4-0.5-0.8-0.8-1.3-0.8c-1,0-1.9,2.3-2.7,6.8
		c-0.4,2-0.8,3.4-1.2,4.2c-0.3,0.5-0.6,0.8-0.8,0.8c-0.2,0-0.3-0.3-0.3-0.8c0-0.8-0.5-2.3-1.4-4.7c-0.9-2.3-1.5-3.5-2-3.5
		c-0.2,0-0.4,0.1-0.5,0.2c-0.1,0.2-0.3,0.3-0.7,0.3c-0.4,0-0.9-0.3-1.6-0.9c-0.7-0.6-1-1.1-1-1.5c0-0.1,0.3-0.7,0.8-1.6
		C81.3,89.3,81.7,88.8,81.8,88.8L81.8,88.8z"/>
	<path class="st0" d="M91,132.8c0.1-0.1,0.1-0.3,0.2-0.3c0.1-0.1,0.1,0,0.1,0c0,0.1,0,0.2,0,0.4c-0.7,3.6-1.7,5.4-3.2,5.4
		c-1.6,0-2.3-1.3-2.3-3.9c0-3.2,0.9-6.6,2.8-10.1c0.4-0.9,0.7-1.3,0.8-1.3c0,0,0,0,0,0c0,0.2-0.1,0.7-0.4,1.5
		c-1.2,3.7-1.8,6.2-1.8,7.7c0,2,0.5,3,1.6,3C89.5,135.1,90.2,134.3,91,132.8L91,132.8z"/>
	<path class="st0" d="M95.9,38.6c1.4,0,2.6,0.8,3.7,2.4c1.1,1.6,1.8,3.7,2.3,6.3c0.1,0.3,0.1,0.4,0.1,0.5c0.1,0.1,0.1,0.1,0.1,0
		c0-0.1,0.1-0.2,0.2-0.5c0.2-1.5,0.7-3.9,1.6-6.9c0.9-2.2,1.9-3.3,3-3.3c0.6,0,1.1,0.4,1.7,1.1c0.5,0.7,0.7,1.2,0.7,1.6
		c0,0.3-0.1,0.7-0.3,1.2c-0.2,0.7-0.5,1-0.7,1c-0.1,0-0.4-0.3-0.8-0.8c-0.4-0.5-0.8-0.8-1.3-0.8c-1,0-1.9,2.3-2.7,6.8
		c-0.4,2-0.8,3.4-1.2,4.2c-0.3,0.5-0.6,0.8-0.8,0.8c-0.2,0-0.3-0.3-0.3-0.8c0-0.8-0.5-2.3-1.4-4.7c-0.9-2.3-1.5-3.5-2-3.5
		c-0.2,0-0.4,0.1-0.5,0.2C97.2,43.9,97,44,96.6,44c-0.4,0-0.9-0.3-1.6-0.9c-0.7-0.6-1-1.1-1-1.5c0-0.1,0.3-0.7,0.8-1.6
		C95.4,39,95.7,38.6,95.9,38.6L95.9,38.6z"/>
	<path class="st0" d="M140.1,99.6c-0.1-0.1-0.1-0.2,0-0.4l2.3-4.8c0.1-0.3,0.3-0.4,0.5-0.4c0.2,0,1.3,0.6,3.1,1.9
		c1.8,1.2,2.7,2,2.7,2.2c0,0.8-0.8,2.5-2.4,5.1c-0.2,0.3-0.4,0.4-0.6,0.3C143.9,102.1,142.1,100.8,140.1,99.6L140.1,99.6z"/>
	<path class="st0" d="M151.7,84.9c0,1-0.2,1.9-0.6,2.9c-0.6,1.3-1.3,2-2.1,2c-1.4,0-2.4-1-2.9-2.9c-0.7,2.4-1.8,3.7-3.6,3.7
		c-0.7,0-1.2-0.3-1.7-1c-0.6-0.8-0.8-1.8-0.8-3.1v-3c0-0.2-0.2-0.4-0.5-0.5c-0.3-0.1-0.5-0.4-0.5-0.8c0-0.7,0.3-1.3,0.8-1.9
		c0.5-0.5,0.9-0.8,1.1-0.8c0.4,0,0.5,0.7,0.5,2c0,0.7-0.1,1.2-0.2,1.7c-0.1,0.4-0.1,0.9-0.1,1.2c0,0.7,0.1,1.4,0.4,2.1
		c0.4,0.7,0.8,1.1,1.3,1.1c0.7,0,1.3-0.3,1.8-0.9c0.6-0.6,0.9-1.3,0.9-2.1c0-0.4-0.1-1.2-0.4-2.3c-0.3-1.1-0.4-1.8-0.4-2.1
		c0-0.2,0.1-0.6,0.4-1.1c0.2-0.5,0.4-0.8,0.5-0.8c0.2,0,0.5,0.7,0.9,2.2c0.4,1.5,0.5,2.6,0.5,3.3c0,2,0.8,3.1,2.3,3.1
		c0.7,0,1.1-0.4,1.3-1c-1.4-2.3-2.1-4.2-2.1-5.4c0-0.7,0.2-1.4,0.6-1.9c0.2-0.4,0.4-0.6,0.5-0.6c0.1,0,0.1,0.2,0.2,0.7
		c0.1,0.7,0.2,1.2,0.3,1.7c0,0.1,0.4,0.9,1,2.5C151.4,83.7,151.7,84.4,151.7,84.9L151.7,84.9z"/>
	<path class="st0" d="M89.6,73.9c-2.3-1.2-3.4-2.4-3.4-3.7c0-1.5,0.7-3,2.1-4.3c1.4-1.3,2.6-1.8,3.6-1.4c0.8,0.3,1.2,1.1,1.2,2.6
		c0,1.3-0.3,2.7-0.8,4.3c1.2,0.7,1.9,1.2,2.1,1.7c0,0.6-0.5,1.6-1.5,3.1c-0.3-0.4-1-1-2.1-1.7c-1.3,1.8-2.9,3.3-4.8,4.8
		c-2.2,1.6-4.2,2.8-6,3.7c-0.4,0.2-2.5,1-6.4,2.4c-0.6,0.2-1,0.3-1.2,0.3c-0.1,0-0.1,0-0.1-0.1c0-0.1,0.3-0.4,1-0.9
		c2.9-1.7,5.7-3.4,8.6-5.1C85.4,77.5,87.9,75.6,89.6,73.9L89.6,73.9z M91,70.7c0.2-0.7,0.3-1.4,0.1-2.1c-0.1-0.8-0.5-1.2-1-1.2
		c-0.3,0-0.6,0.1-1.1,0.4c-0.4,0.3-0.7,0.5-0.7,0.7C88.3,69.2,89.2,69.9,91,70.7L91,70.7z"/>
	<path class="st0" d="M76.5,69.8c0.1-0.1,0.1-0.3,0.2-0.3c0.1-0.1,0.1,0,0.1,0c0,0.1,0,0.2,0,0.4c-0.7,3.6-1.7,5.4-3.2,5.4
		c-1.6,0-2.3-1.3-2.3-3.9c0-3.2,0.9-6.6,2.8-10.1c0.4-0.9,0.7-1.3,0.8-1.3c0,0,0,0,0,0c0,0.2-0.1,0.7-0.4,1.5
		c-1.2,3.7-1.8,6.2-1.8,7.7c0,2,0.5,3,1.6,3C75,72.1,75.7,71.4,76.5,69.8L76.5,69.8z"/>
	<path class="st0" d="M126.5,168.7c0.1-0.1,0.1-0.3,0.2-0.3c0.1-0.1,0.1,0,0.1,0c0,0.1,0,0.2,0,0.4c-0.7,3.6-1.7,5.4-3.2,5.4
		c-1.6,0-2.3-1.3-2.3-3.9c0-3.2,0.9-6.6,2.8-10.1c0.4-0.9,0.7-1.3,0.8-1.3c0,0,0,0,0,0c0,0.2-0.1,0.7-0.4,1.5
		c-1.2,3.7-1.8,6.2-1.8,7.7c0,2,0.5,3,1.6,3C125,171,125.8,170.2,126.5,168.7L126.5,168.7z"/>
	<path class="st0" d="M155.2,141.1c0,1.1,0,1.8-0.1,2.1c-2.6,2.4-18.4,17-22.5,21.2c-0.3,0.4-0.2,0.1-0.2-0.3l0.3-2.9
		c0.5-0.7,2.2-2.5,5.2-5.2c1.6-1.5,14.9-13.5,16.6-15c0.3-0.3,0.5-0.4,0.5-0.4C155.2,140.6,155.2,140.8,155.2,141.1L155.2,141.1z"/>
	<path class="st0" d="M167.5,126.8c0.1-0.1,0.1-0.3,0.2-0.3c0.1-0.1,0.1,0,0.1,0c0,0.1,0,0.2,0,0.4c-0.7,3.6-1.7,5.4-3.2,5.4
		c-1.6,0-2.3-1.3-2.3-3.9c0-3.2,0.9-6.6,2.8-10.1c0.4-0.9,0.7-1.3,0.8-1.3c0,0,0,0,0,0c0,0.2-0.1,0.7-0.4,1.5
		c-1.2,3.7-1.8,6.2-1.8,7.7c0,2,0.5,3,1.6,3C166,129.1,166.7,128.3,167.5,126.8L167.5,126.8z"/>
	<path class="st0" d="M116,56.5c0.1-0.1,0.1-0.3,0.2-0.3c0.1-0.1,0.1,0,0.1,0c0,0.1,0,0.2,0,0.4c-0.7,3.6-1.7,5.4-3.2,5.4
		c-1.6,0-2.3-1.3-2.3-3.9c0-3.2,0.9-6.6,2.8-10.1c0.4-0.9,0.7-1.3,0.8-1.3c0,0,0,0,0,0c0,0.2-0.1,0.7-0.4,1.5
		c-1.2,3.7-1.8,6.2-1.8,7.7c0,2,0.5,3,1.6,3C114.5,58.8,115.2,58.1,116,56.5L116,56.5z"/>
	<path class="st0" d="M91.2,55.1c0.1-0.1,0.1-0.3,0.2-0.3c0.1-0.1,0.1,0,0.1,0c0,0.1,0,0.2,0,0.4c-0.7,3.6-1.7,5.4-3.2,5.4
		c-1.6,0-2.3-1.3-2.3-3.9c0-3.2,0.9-6.6,2.8-10.1c0.4-0.9,0.7-1.3,0.8-1.3c0,0,0,0,0,0c0,0.2-0.1,0.7-0.4,1.5
		c-1.2,3.7-1.8,6.2-1.8,7.7c0,2,0.5,3,1.6,3C89.7,57.4,90.4,56.7,91.2,55.1L91.2,55.1z"/>
	<path class="st0" d="M121.9,24.3c0-2.3-0.4-4.3-1.1-5.8c0-0.9,0.7-2.9,2-6c0.3-0.7,0.6-0.7,1,0c0.4,0.8,1.3,3.1,2.7,6.8
		c1.5,3.9,2.3,6.3,2.6,7.2c0.2,0.7,0.3,1.2,0.3,1.5c0,1.1-1,0.4-3.1-1.9c-0.2-0.3-0.4-0.2-0.4,0.4c0,0.1,0.3,4.1,1,12.4
		c-1.5-0.7-2.9-1.5-4.2-2.3C122.1,29.5,121.9,25.5,121.9,24.3L121.9,24.3z M127.6,48.4c0.1,1,0.1,1.8,0.2,2.8
		c1.3,16.2,2,25.2,2,27.1c0,5.6-0.9,10.6-2.6,14.9c-0.4,0.9-0.7,1.5-0.9,1.9c-0.3,0.6-0.5,0.6-0.6,0.2c-0.1-0.4-0.1-1.3,0.1-2.7
		c0.2-1.9,0.4-4.2,0.4-6.8c0-2.3-0.7-12.6-2.1-31c-0.3-3.2-0.4-6-0.6-8.7C124.6,46.8,126,47.6,127.6,48.4L127.6,48.4z"/>
	<path class="st0" d="M105.5,82.7c-5.1,0-7.6-3.4-7.6-10c0-5.1,1-10.3,3.2-15.5c0.4-1.1,0.8-1.7,1-1.7c0.1,0,0.1,0.1,0.1,0.4
		c0,0.4-0.1,0.9-0.3,1.7c-1.5,5.2-2.2,9.2-2.2,11.9c0,2,0.6,3.6,1.8,4.7c1,0.9,2.3,1.4,3.7,1.4c3.2,0,9.6-3.1,18.7-9.1l0.5,6.4
		c-0.5,0.3-1,0.7-1.6,1C114.1,79.7,108.3,82.7,105.5,82.7L105.5,82.7z M129.5,62.8c5-3.3,7.8-5.4,8.8-6.3c0.5-0.5,0.7-0.9,0.7-1.4
		c0-0.7-0.6-1.5-1.9-2.4c-1.5-1.2-4-2.6-7.5-4.3c-3.8-1.8-6.6-3.3-8.4-4.5c-3.3-2.2-6.1-5-8.6-8.4c-0.3-0.4-1-0.9-2-1.5
		c-0.6-0.3-0.8-1-0.8-2.2v-4.4c0-0.4,0-0.7,0.1-0.8c0.1-0.1,0.5-0.1,1.2,0.2l7.5,3.6c0.3,0.1,0.6,0.3,0.8,0.4
		c1.2,0.7,1.7,1.2,1.3,1.6c-0.4,0.4-1.8,0.5-4.2,0.4c2.8,2.7,6.4,5.1,10.9,7.3c5.5,2.6,8.7,4.3,9.7,5c2.4,1.7,3.6,4.5,3.6,8.6
		c0,0.8-0.1,1.7-0.2,2.5c-0.4,2.3-0.8,3.8-1.3,4.8c-0.4,0.7-1.1,1.5-2.3,2.6c-1.4,1.3-3.6,3-6.9,5.4
		C129.8,67.1,129.7,65.1,129.5,62.8L129.5,62.8z"/>
	<path class="st0" d="M129.8,113.4c-1.7-2.3-3.3-3.4-4.7-3.4c-2.1,0-3.2,0.6-3.2,1.8c0,1.4,1.5,2.1,4.4,2.1
		C127.4,113.8,128.6,113.6,129.8,113.4L129.8,113.4z M152.8,115.8L152.8,115.8c2.3,0,4.6-0.9,6.8-2.7c0.6-0.5,1-2.5,1-5.8
		c0-2.1-0.5-10.2-1.6-24.5c-1-14.3-1.5-20.7-1.5-23.3c0-2.3-0.4-4.3-1.1-5.7c0-0.8,0.7-2.8,2-6c0.1-0.4,0.3-0.6,0.4-0.6
		c0.1,0,0.3,0.2,0.5,0.7c0.4,0.8,1.3,3.1,2.7,6.8c1.5,3.9,2.3,6.2,2.6,7.1c0.1,0.7,0.2,1.2,0.2,1.5c0,1.1-1,0.4-3.1-1.9
		c-0.2-0.3-0.4-0.2-0.4,0.4c0,0.1,0.4,4.5,1.3,17c0.9,12.6,1.4,20.1,1.4,22.5c0,7-1.3,12.5-3.8,16.6c-2.1,3.4-4.7,5.1-7.6,5.1l0,0
		c-3,0-5.3-0.7-6.8-2.2c-1.2-1.2-1.9-2.9-1.9-4.8c0-0.5,0-1.1,0-1.6c-3.1,2.2-5.6,3.7-7.5,4.6l0,0l-0.4,0.1c0,1.4-0.3,3.2-1,5.2
		c-0.9,2.8-2.1,5-3.6,6.8c-3.1,3.5-8.4,7.4-16.2,11.8c-3.5,2-6.5,3.6-8.5,4.5c0.5-2.5,1.2-5.2,2.1-7.9c1.5-0.7,3.2-1.6,4.6-2.3
		c13.3-7.1,19.9-12.2,19.9-15.1c0-0.8-0.2-1.6-0.5-2.5c-1.5,0.5-3.5,0.8-6.2,0.8c-5.7,0-8.6-2-8.6-5.8c0-3,1-5.7,2.9-7.9
		c1.8-2.1,3.7-3.2,5.6-3.2c1.5,0,3.2,0.9,4.9,2.8c1.6,1.6,2.9,3.7,4.2,6.3c0.1,0,0.4-0.1,0.8-0.2l0,0c2.5-1.1,5.4-2.7,8.8-4.9
		c0.5-0.4,0.9-0.5,1.2-0.5c0.3,0,0.5,0.3,0.5,0.8c0,0.3-0.1,0.7-0.1,1.4c-0.1,0.7-0.1,1.2-0.1,1.5c0,1.1,0.5,2.2,1.5,3.3
		C149.5,115.1,151,115.8,152.8,115.8L152.8,115.8z M102.8,148.8c-0.8,0.1-3.8,1-9.9,2.5c-7.2,1.8-11.6,2.8-13.4,3.1
		c-1.9,0.3-3.1,0.4-3.5,0.4c-0.2,0-0.3,0-0.4-0.1c0-0.2,1.3-0.9,4-2c0.9-0.4,6.4-2.8,16.5-7.1c3.5-1.5,6.2-2.9,9.2-4.3
		C104.2,143.9,103.4,146.4,102.8,148.8L102.8,148.8z"/>
	<path class="st0" d="M152.4,49.8c0.1-0.1,0.1-0.3,0.2-0.3c0.1-0.1,0.1,0,0.1,0c0,0.1,0,0.2,0,0.4c-0.7,3.6-1.7,5.4-3.2,5.4
		c-1.6,0-2.3-1.3-2.3-3.9c0-3.2,0.9-6.6,2.8-10.1c0.4-0.9,0.7-1.3,0.8-1.3c0,0,0,0,0,0c0,0.2-0.1,0.7-0.4,1.5
		c-1.2,3.7-1.8,6.2-1.8,7.7c0,2,0.5,3,1.6,3C150.9,52.1,151.6,51.4,152.4,49.8L152.4,49.8z"/>
	<path class="st0" d="M40.2,205.3c0,1.9-0.8,3.3-2.5,4.1c-0.2,0-0.3,0-0.4-0.1c-0.1-0.1-0.1-0.2-0.1-0.2c0-0.1,0-0.2,0.1-0.2
		c0.4-0.4,0.7-1,0.8-1.8c-0.7,0-1.2-0.2-1.7-0.6c-0.5-0.4-0.7-1-0.7-1.6c0-0.6,0.2-1.1,0.6-1.6c0.4-0.4,1-0.6,1.6-0.6
		c0.6,0,1.2,0.3,1.7,0.8C40,203.9,40.2,204.6,40.2,205.3L40.2,205.3z"/>
	<path class="st0" d="M24.8,228c1.9-2.6,2.9-5.8,2.9-9.6c0-3.8-1-7-2.9-9.6c-1.9-2.7-4.2-4-6.9-4c-0.8,0-1.2,0.6-1.2,1.8v22.9
		c0,1.6,0.5,2.5,1.4,2.5C20.6,231.9,22.9,230.6,24.8,228L24.8,228z M33.5,218.5c0,4.3-1.6,7.9-4.7,10.9c-3.1,3-6.9,4.5-11.2,4.5H7.4
		c-0.2,0-0.4-0.1-0.4-0.4c0-0.2,0.1-0.4,0.4-0.4H8c0.9,0,1.6-0.4,2.2-1.2c0.6-0.8,0.9-1.6,0.9-2.5V206c0-1.4-0.8-2.2-2.3-2.2H8.2
		c-0.2,0-0.4-0.1-0.4-0.3c0-0.3,0.1-0.4,0.4-0.4h9.5c4.3,0,8,1.5,11.2,4.5C32,210.5,33.5,214.2,33.5,218.5L33.5,218.5z"/>
	<path class="st0" d="M224.5,211.4c0-2-0.9-3.5-2.7-4.7c-1.6-1-3.4-1.5-5.6-1.5c-1.3,0-1.9,0.7-1.9,2v10.6c0.5,0.1,1.1,0.1,1.7,0.1
		c2.2,0,4.1-0.5,5.8-1.5C223.5,215.1,224.4,213.4,224.5,211.4L224.5,211.4z M238.8,231.5c0.2,2.8-1.8,4.1-6.1,4.1
		c-1.3,0-2.5-0.1-3.4-0.4c-2.9-0.9-5.3-2.6-7.2-5.1c-0.3-0.5-2.2-3.4-5.7-8.8c-0.3-0.5-0.8-1.1-1.5-1.8c0,0-0.2-0.1-0.6-0.1v10.8
		c0,0.9,0.3,1.7,0.9,2.5c0.6,0.8,1.4,1.2,2.2,1.2h0.7c0.2,0,0.4,0.1,0.4,0.4c0,0.2-0.1,0.3-0.4,0.3h-13.2c-0.2,0-0.3-0.1-0.3-0.3
		c0-0.2,0.1-0.4,0.3-0.4h0.8c0.9,0,1.6-0.4,2.2-1.2c0.6-0.8,0.9-1.6,0.9-2.5v-23.8c0-1.4-1-2.1-2.9-2.1c-0.2,0-0.4-0.1-0.4-0.3
		c0-0.2,0.1-0.4,0.4-0.4H218c3.2,0,6,0.5,8.4,1.5c3.3,1.4,5,3.5,5,6.3c0,2.2-1.5,4.1-4.5,5.6c-2.2,1.1-4.6,1.8-7.3,2.1
		c2.4,1.2,4.5,3.8,6.3,7.9c1,2.4,2,4.1,2.8,5c1.3,1.5,3,2.2,5.1,2.3c1,0,1.9-0.3,2.7-0.9c0.3-0.3,0.5-0.7,0.5-1.1
		c0-0.5-0.2-0.6-0.7-0.4c-0.2,0.1-0.4,0.2-0.7,0.4c0-1.5,0.6-2.3,1.8-2.3C238.3,230.1,238.8,230.6,238.8,231.5L238.8,231.5z"/>
	<path class="st0" d="M200.7,204.1c0,0.2-0.1,0.3-0.3,0.3c-1.9,0-2.9,0.7-3,2.2l0,18.6c0,6.3-6.2,9.8-10.7,9.8
		c-9.8,0-10.9-6.2-11.3-9.8l0-18.6c0-1.5-1.1-2.2-2.9-2.2c-0.3,0-0.4-0.1-0.4-0.3c0-0.2,0.1-0.3,0.4-0.3h11.3c0.2,0,0.4,0.1,0.4,0.3
		c0,0.2-0.2,0.3-0.5,0.3c-0.2,0-0.5,0-0.8,0c-0.5,0.1-1,0.3-1.5,0.7c-0.4,0.4-0.5,0.8-0.5,1.4l0,18.7c0,9.3,14.8,8.6,14.8,0
		l-0.1-18.6c0-0.6-0.2-1.1-0.7-1.5c-0.5-0.4-1.1-0.6-1.7-0.6h-0.6c-0.2,0-0.2-0.1-0.2-0.3c0-0.2,0.1-0.3,0.2-0.3h7.9
		C200.6,203.8,200.7,203.9,200.7,204.1L200.7,204.1z"/>
	<path class="st0" d="M162.2,216.6c-0.8-2.9-2.2-5.4-4.2-7.6c-2.3-2.4-4.9-3.6-7.7-3.6c-3,0-5.4,1.3-7.2,4c-1.5,2.3-2.3,5-2.3,8.1
		c0,1.5,0.2,3.1,0.6,4.6c0.8,2.9,2.2,5.4,4.2,7.6c2.3,2.4,4.8,3.6,7.7,3.6c3,0,5.3-1.3,7.1-3.9c1.6-2.3,2.4-5,2.4-8.2
		C162.8,219.7,162.6,218.2,162.2,216.6L162.2,216.6z M168,219.4c0,4.4-1.6,8.1-4.9,11.1c-3.2,3-7,4.5-11.4,4.5
		c-4.4,0-8.2-1.5-11.4-4.6c-3.2-3.1-4.8-6.8-4.8-11c0-4.3,1.6-8,4.9-11c3.2-3,7-4.5,11.4-4.5c4.4,0,8.2,1.5,11.4,4.5
		C166.4,211.3,168,215,168,219.4L168,219.4z"/>
	<path class="st0" d="M99.5,235.6c-0.2,0.1-0.4,0.1-0.5,0.1c-3.4-1.2-6.6-4.4-8.4-7.4l-1.4-2.3l-9.1-14.6v19.3
		c0,0.9,0.3,1.7,0.9,2.5c0.6,0.8,1.4,1.2,2.2,1.2h0.7c0.2,0,0.4,0.1,0.4,0.4c0,0.2-0.1,0.3-0.4,0.3h-9.7c-0.2,0-0.4-0.1-0.4-0.3
		c0-0.2,0.1-0.4,0.4-0.4H75c0.9,0,1.6-0.4,2.2-1.2c0.6-0.8,0.9-1.6,0.9-2.5v-22.3c-0.8-1.3-1.5-2.1-2.2-2.6
		c-0.8-0.6-1.9-0.9-3.3-0.9c-0.2,0-0.4-0.1-0.4-0.4c0-0.2,0.1-0.4,0.4-0.4h8.9l12.5,20.8v-17.9c0-1.4-0.8-2.1-2.3-2.1h-0.7
		c-0.2,0-0.3-0.1-0.3-0.4c0-0.2,0.1-0.4,0.3-0.4H99c0.2,0,0.3,0.1,0.3,0.4c0,0.2-0.1,0.4-0.3,0.4h-0.6c-1.6,0-2.4,0.7-2.4,2.1v19.4
		c0,1.5,0.2,3.1,0.8,4.8c0.6,1.9,1.5,3.3,2.5,4.1C99.6,235.2,99.6,235.4,99.5,235.6L99.5,235.6z"/>
	<path class="st0" d="M68.8,204c-0.3,2.6-1.6,4.7-4,6.3c-0.1,0.1-0.2,0.1-0.4,0c-0.2-0.1-0.2-0.3-0.1-0.4c0.2-0.4,0.4-0.9,0.4-1.5
		c0-1.3-0.8-2.2-2.4-2.8c-1.1-0.5-2.5-0.7-4-0.7h-1.2c-1.6,0-2.4,0.7-2.4,2.1v12.1h3.7c1.1,0,1.9-0.2,2.5-0.7
		c0.3-0.2,0.8-0.8,1.3-1.7c0.1-0.1,0.2-0.2,0.4-0.1c0.2,0,0.2,0.1,0.2,0.3v6c0,0.2-0.1,0.3-0.2,0.3c-0.2,0-0.3,0-0.4-0.1
		c-0.9-1.6-2.1-2.4-3.8-2.4h-3.7v9.5c0,2.1,1.3,3.2,3.8,3.2c1.4,0,2.7-0.4,4-1.1c1.4-0.8,2.2-1.9,2.2-3.2c0-0.8-0.3-1.5-0.9-2.2
		c-0.1-0.1-0.1-0.2,0-0.4c0.2-0.1,0.3-0.2,0.4-0.1c2.7,1.1,4.1,2.7,4.1,4.8c0,0.5-0.2,1.1-0.5,1.8c-0.4,0.9-0.9,1.4-1.4,1.7H45.6
		c-0.3,0-0.4-0.1-0.4-0.4c0-0.2,0.1-0.4,0.4-0.4h0.7c0.9,0,1.6-0.4,2.2-1.1c0.6-0.8,0.9-1.6,0.9-2.5v-23.7c0-1.4-0.8-2.2-2.3-2.2
		h-0.6c-0.2,0-0.4-0.1-0.4-0.3c0-0.3,0.1-0.4,0.4-0.4h22C68.8,203.6,68.9,203.7,68.8,204L68.8,204z"/>
	<path class="st0" d="M131.1,235.5c-0.2,0.1-0.4,0.1-0.5,0.1c-3.4-1.2-6.6-4.4-8.4-7.4l-1.4-2.3l-9.1-14.6v19.3
		c0,0.9,0.3,1.7,0.9,2.5c0.6,0.8,1.4,1.2,2.2,1.2h0.7c0.2,0,0.4,0.1,0.4,0.4c0,0.2-0.1,0.3-0.4,0.3h-9.7c-0.2,0-0.4-0.1-0.4-0.3
		c0-0.2,0.1-0.4,0.4-0.4h0.7c0.9,0,1.6-0.4,2.2-1.2c0.6-0.8,0.9-1.6,0.9-2.5v-22.3c-0.8-1.3-1.5-2.1-2.2-2.6
		c-0.8-0.6-1.9-0.9-3.3-0.9c-0.2,0-0.4-0.1-0.4-0.4c0-0.2,0.1-0.4,0.4-0.4h8.9l12.5,20.8v-17.9c0-1.4-0.8-2.1-2.3-2.1h-0.7
		c-0.2,0-0.3-0.1-0.3-0.4c0-0.2,0.1-0.4,0.3-0.4h7.9c0.2,0,0.3,0.1,0.3,0.4c0,0.2-0.1,0.4-0.3,0.4h-0.6c-1.6,0-2.4,0.7-2.4,2.1v19.4
		c0,1.5,0.2,3.1,0.8,4.8c0.6,1.9,1.5,3.3,2.5,4.1C131.1,235.2,131.1,235.4,131.1,235.5L131.1,235.5z"/>
	<path class="st0" d="M9,178.5h222.6V201H9V178.5L9,178.5z M49.5,197.2v-14.9h3l3.5,10.5c0.3,1,0.6,1.7,0.7,2.2
		c0.2-0.5,0.4-1.3,0.8-2.4l3.6-10.3h2.6v14.9h-1.9v-12.4l-4.3,12.4h-1.8l-4.3-12.6v12.6H49.5L49.5,197.2z M78.1,197.2l5.7-14.9h2.1
		l6.1,14.9h-2.2l-1.7-4.5h-6.2l-1.6,4.5H78.1L78.1,197.2z M82.4,191.1h5l-1.6-4.1c-0.5-1.2-0.8-2.3-1.1-3.1c-0.2,1-0.5,1.9-0.8,2.8
		L82.4,191.1L82.4,191.1z M106.8,197.2v-14.9h2v14.9H106.8L106.8,197.2z M124.4,192.4l1.9-0.2c0.1,0.7,0.3,1.4,0.6,1.8
		c0.3,0.5,0.8,0.9,1.5,1.2c0.7,0.3,1.4,0.4,2.3,0.4c0.8,0,1.4-0.1,2-0.3c0.6-0.2,1-0.5,1.3-0.9c0.3-0.4,0.4-0.8,0.4-1.3
		c0-0.5-0.1-0.9-0.4-1.2c-0.3-0.3-0.7-0.6-1.3-0.9c-0.4-0.2-1.3-0.4-2.6-0.7c-1.4-0.3-2.3-0.6-2.9-0.9c-0.7-0.4-1.2-0.8-1.6-1.4
		c-0.3-0.5-0.5-1.2-0.5-1.9c0-0.7,0.2-1.5,0.6-2.1c0.4-0.7,1-1.1,1.9-1.5c0.8-0.3,1.7-0.5,2.7-0.5c1.1,0,2.1,0.2,2.9,0.5
		c0.8,0.4,1.5,0.9,1.9,1.6c0.4,0.7,0.7,1.5,0.7,2.3l-1.9,0.1c-0.1-0.9-0.4-1.7-1-2.1c-0.6-0.5-1.4-0.7-2.6-0.7
		c-1.2,0-2.1,0.2-2.6,0.7c-0.5,0.4-0.8,1-0.8,1.6c0,0.5,0.2,1,0.6,1.3c0.4,0.3,1.4,0.7,3,1.1c1.6,0.4,2.7,0.7,3.3,0.9
		c0.9,0.4,1.5,0.9,1.9,1.5c0.4,0.6,0.6,1.3,0.6,2.1c0,0.8-0.2,1.5-0.7,2.2c-0.5,0.7-1.1,1.2-2,1.6c-0.8,0.4-1.8,0.6-2.9,0.6
		c-1.3,0-2.5-0.2-3.4-0.6c-0.9-0.4-1.6-1-2.1-1.8C124.7,194.3,124.4,193.4,124.4,192.4L124.4,192.4z M151.2,189.9
		c0-2.5,0.7-4.4,2-5.8c1.3-1.4,3-2.1,5.1-2.1c1.4,0,2.6,0.3,3.7,1c1.1,0.7,1.9,1.6,2.5,2.7c0.6,1.2,0.9,2.5,0.9,4
		c0,1.5-0.3,2.9-0.9,4c-0.6,1.2-1.5,2.1-2.6,2.7c-1.1,0.6-2.3,0.9-3.6,0.9c-1.4,0-2.7-0.3-3.8-1c-1.1-0.7-1.9-1.6-2.5-2.8
		C151.5,192.5,151.2,191.2,151.2,189.9L151.2,189.9z M153.2,189.9c0,1.8,0.5,3.2,1.4,4.2c1,1,2.2,1.5,3.6,1.5c1.5,0,2.7-0.5,3.7-1.6
		c1-1,1.4-2.5,1.4-4.4c0-1.2-0.2-2.3-0.6-3.2c-0.4-0.9-1-1.6-1.8-2.1c-0.8-0.5-1.7-0.7-2.7-0.7c-1.4,0-2.6,0.5-3.6,1.4
		C153.7,186.1,153.2,187.7,153.2,189.9L153.2,189.9z M180.8,197.2v-14.9h2l7.8,11.7v-11.7h1.9v14.9h-2l-7.8-11.7v11.7H180.8
		L180.8,197.2z"/>
</g>
</svg>
